<svg width="16" height="16" viewBox="0 0 16 16" fill="none" xmlns="http://www.w3.org/2000/svg">
<path d="M3.38585 13.884C3.01862 13.884 2.66644 13.7373 2.40678 13.4761C2.14711 13.2149 2.00123 12.8606 2.00123 12.4912L2 3.82143C2 3.45202 2.14588 3.09774 2.40554 2.83653C2.66521 2.57532 3.01739 2.42857 3.38462 2.42857L3.84431 2.42795V1.96429C3.84435 1.8519 3.88492 1.74335 3.95847 1.65877C4.03203 1.57419 4.13359 1.51932 4.24431 1.50433L4.30585 1.5C4.41738 1.5 4.52513 1.54064 4.60919 1.61438C4.69324 1.68812 4.74791 1.78999 4.76308 1.90114L4.76738 1.96429V2.42795H6.61538V1.96429C6.61541 1.852 6.65589 1.74352 6.72932 1.65896C6.80275 1.57439 6.90416 1.51945 7.01477 1.50433L7.07692 1.5C7.18845 1.5 7.29621 1.54064 7.38027 1.61438C7.46432 1.68812 7.51899 1.78999 7.53415 1.90114L7.53846 1.96429V2.42795H9.38339V1.96429C9.38339 1.85209 9.42378 1.74369 9.49709 1.65914C9.57039 1.57458 9.67166 1.51959 9.78215 1.50433L9.84615 1.5C9.95768 1.5 10.0654 1.54064 10.1495 1.61438C10.2336 1.68812 10.2882 1.78999 10.3034 1.90114L10.3077 1.96429V2.42795H10.7686C11.1358 2.42795 11.488 2.5747 11.7477 2.83591C12.0074 3.09712 12.1532 3.4514 12.1532 3.82081V6.50005C11.8733 6.32208 11.5584 6.20719 11.2302 6.16329V3.82143C11.2302 3.69829 11.1815 3.5802 11.095 3.49313C11.0084 3.40606 10.891 3.35714 10.7686 3.35714H3.37846C3.25712 3.35877 3.1413 3.4084 3.05608 3.4953C2.97085 3.58219 2.92307 3.69936 2.92308 3.82143L2.92369 12.4906C2.92369 12.7475 3.13108 12.9549 3.38523 12.9549H7.39631C7.51938 13.2898 7.70708 13.6042 7.952 13.8834L3.38585 13.884ZM11.2295 6.78976C11.5908 6.85662 11.9114 7.03738 12.1526 7.29552C12.4501 7.61103 12.6158 8.02943 12.6154 8.46429C12.6161 8.89897 12.4509 9.31735 12.1538 9.63305C11.9957 9.80172 11.805 9.93608 11.5933 10.0278C11.3816 10.1196 11.1536 10.1669 10.9231 10.1667C10.688 10.1664 10.4555 10.117 10.2405 10.0214C10.0255 9.92577 9.83267 9.78617 9.67426 9.61144C9.51586 9.43672 9.39537 9.23072 9.32049 9.00656C9.24561 8.7824 9.21798 8.54501 9.23935 8.30952C9.26072 8.07402 9.33063 7.84559 9.44462 7.63877C9.55861 7.43196 9.71419 7.25131 9.90143 7.10833C10.0887 6.96535 10.3035 6.86318 10.5321 6.80833C10.7608 6.75348 10.9983 6.74716 11.2295 6.78976ZM8.75939 10.7857H13.0769C13.3217 10.7857 13.5565 10.8835 13.7296 11.0577C13.9027 11.2318 14 11.468 14 11.7143V12.0238C14 13.244 12.8554 14.5 10.9231 14.5C10.0745 14.5 9.37846 14.2586 8.864 13.884C8.52776 13.6438 8.25467 13.3249 8.06831 12.9549C7.92392 12.6659 7.84789 12.3472 7.84615 12.0238V11.7143C7.84614 11.4695 7.94221 11.2346 8.11346 11.0607C8.28472 10.8868 8.5173 10.788 8.76062 10.7857H8.75939ZM4.30646 7.69048H8.74585C8.64137 7.98813 8.59845 8.30411 8.61969 8.61905H4.30646C4.18952 8.61901 4.07696 8.57433 3.99151 8.49402C3.90607 8.41371 3.85411 8.30377 3.84614 8.18641C3.83817 8.06905 3.87478 7.95302 3.94857 7.86177C4.02237 7.77052 4.12785 7.71084 4.24369 7.69481L4.30646 7.69048ZM4.30646 10.1667H6.76738C6.88432 10.1667 6.99689 10.2114 7.08233 10.2917C7.16778 10.372 7.21974 10.4819 7.22771 10.5993C7.23568 10.7167 7.19907 10.8327 7.12527 10.9239C7.05148 11.0152 6.946 11.0749 6.83015 11.0909L6.76738 11.0952H4.30646C4.18952 11.0952 4.07696 11.0505 3.99151 10.9702C3.90607 10.8899 3.85411 10.78 3.84614 10.6626C3.83817 10.5452 3.87478 10.4292 3.94857 10.338C4.02237 10.2467 4.12785 10.187 4.24369 10.171L4.30646 10.1667ZM4.30646 5.21429H9.84492C9.96181 5.21448 10.0743 5.25927 10.1596 5.33963C10.2449 5.41999 10.2968 5.52992 10.3047 5.64723C10.3125 5.76455 10.2759 5.8805 10.2021 5.97169C10.1283 6.06287 10.0229 6.1225 9.90708 6.13852L9.84492 6.14286H4.30646C4.18952 6.14282 4.07696 6.09813 3.99151 6.01783C3.90607 5.93752 3.85411 5.82758 3.84614 5.71022C3.83817 5.59286 3.87478 5.47683 3.94857 5.38558C4.02237 5.29433 4.12785 5.23465 4.24369 5.21862L4.30646 5.21429Z" fill="#202020"/>
</svg>
