<svg width="16" height="16" viewBox="0 0 16 16" fill="none" xmlns="http://www.w3.org/2000/svg">
<path d="M12.2847 10.75C12.1179 10.7504 11.9562 10.6865 11.8278 10.5695L8.0007 7.05324L4.16649 10.4439C4.09346 10.5091 4.00942 10.5578 3.91921 10.5872C3.82901 10.6165 3.73441 10.626 3.64085 10.6151C3.5473 10.6042 3.45663 10.573 3.37407 10.5234C3.2915 10.4738 3.21866 10.4068 3.15974 10.3262C3.10043 10.2459 3.05614 10.1535 3.02942 10.0543C3.00269 9.95519 2.99405 9.8512 3.00401 9.74836C3.01396 9.64551 3.0423 9.54585 3.08741 9.45509C3.13252 9.36433 3.1935 9.28426 3.26684 9.21949L7.55088 5.42855C7.67864 5.31311 7.83889 5.25 8.00427 5.25C8.16965 5.25 8.32991 5.31311 8.45767 5.42855L12.7417 9.35292C12.814 9.41881 12.8738 9.49973 12.9176 9.59105C12.9614 9.68237 12.9884 9.78229 12.997 9.88509C13.0056 9.98789 12.9957 10.0915 12.9678 10.1901C12.9399 10.2887 12.8946 10.3803 12.8345 10.4596C12.7681 10.5496 12.6843 10.6224 12.5893 10.6726C12.4942 10.7228 12.3902 10.7492 12.2847 10.75Z" fill="#202020"/>
</svg>
