<svg width="32" height="14" viewBox="0 0 32 14" fill="none" xmlns="http://www.w3.org/2000/svg">
<path d="M2 3.81818C2 2.76389 2.89551 1.90909 4 1.90909H24.6667C25.7712 1.90909 26.6667 2.76389 26.6667 3.81818V10.1818C26.6667 11.2361 25.7712 12.0909 24.6667 12.0909H4C2.89551 12.0909 2 11.2361 2 10.1818V3.81818Z" fill="#F5F5F5"/>
<path fill-rule="evenodd" clip-rule="evenodd" d="M3.33333 0C1.49251 0 0 1.42452 0 3.18182V10.8182C0 12.5755 1.49251 14 3.33333 14H25.3333C27.1742 14 28.6667 12.5755 28.6667 10.8182V3.18182C28.6667 1.42452 27.1742 0 25.3333 0H3.33333ZM25.3333 0.636364H3.33333C1.86068 0.636364 0.666667 1.77595 0.666667 3.18182V10.8182C0.666667 12.2241 1.86068 13.3636 3.33333 13.3636H25.3333C26.806 13.3636 28 12.2241 28 10.8182V3.18182C28 1.77595 26.806 0.636364 25.3333 0.636364Z" fill="#F5F5F5"/>
<path d="M31.3333 4.45455C30.9652 4.45455 30.6667 4.73948 30.6667 5.09091V8.90909C30.6667 9.26052 30.9652 9.54545 31.3333 9.54545C31.7015 9.54545 32 9.26052 32 8.90909V5.09091C32 4.73948 31.7015 4.45455 31.3333 4.45455Z" fill="#F5F5F5"/>
</svg>
