<svg width="14" height="14" viewBox="0 0 14 14" fill="none" xmlns="http://www.w3.org/2000/svg">
<path d="M7.2652 1.09853C7.18831 1.03468 7.0936 1 6.9961 1C6.8986 1 6.80389 1.03468 6.727 1.09853L0.5 6.27017L1.03863 6.99572L1.8 6.3634V12.0769C1.80046 12.3216 1.89191 12.5561 2.05435 12.7291C2.21678 12.9021 2.43695 12.9995 2.66667 13H11.3333C11.563 12.9995 11.7832 12.9021 11.9457 12.7291C12.1081 12.5561 12.1995 12.3216 12.2 12.0769V6.36756L12.9614 6.99988L13.5 6.27432L7.2652 1.09853ZM7.86667 12.0769H6.13333V8.38452H7.86667V12.0769ZM8.73333 12.0769V8.38452C8.7331 8.13978 8.64172 7.90513 8.47924 7.73206C8.31676 7.559 8.09645 7.46167 7.86667 7.46143H6.13333C5.90355 7.46167 5.68324 7.559 5.52076 7.73206C5.35828 7.90513 5.2669 8.13978 5.26667 8.38452V12.0769H2.66667V5.64385L7 2.04839L11.3333 5.64847V12.0769H8.73333Z" fill="#202020" stroke="#202020" stroke-width="0.2"/>
</svg>
