<svg width="14" height="13" viewBox="0 0 14 13" fill="none" xmlns="http://www.w3.org/2000/svg">
<path d="M11.2753 0.777499L11.2753 0.777505L12.7298 2.26698L12.7298 2.26698C12.9189 2.46072 13.025 2.72328 13.025 2.99692C13.025 3.27057 12.9189 3.53313 12.7298 3.72687L12.7298 3.72687L11.1592 5.33521L11.1528 5.34233L11.1517 5.3435L11.1517 5.34347L5.06119 11.2962L5.06118 11.2962M11.2753 0.777499L4.65053 11.5139C4.79778 11.4679 4.93244 11.3872 5.0437 11.2783L5.06118 11.2962M11.2753 0.777499C11.086 0.583876 10.8294 0.475 10.5616 0.475C10.2938 0.475 10.0372 0.583876 9.84793 0.777499L9.86581 0.794972L9.84793 0.777502L8.28072 2.38176L8.28031 2.38217L2.20373 8.32178M11.2753 0.777499L2.20373 8.32178M5.06118 11.2962C4.94712 11.4078 4.80903 11.4906 4.65798 11.5377L4.65797 11.5377L1.55141 12.5054L1.55137 12.5054C1.47389 12.5294 1.39148 12.5314 1.31296 12.5112C1.23444 12.491 1.16281 12.4495 1.10567 12.3909C1.04854 12.3324 1.00803 12.2592 0.988404 12.1791C0.968774 12.099 0.970736 12.0149 0.994087 11.9359L0.994098 11.9358L1.93512 8.76799L1.93512 8.76797C1.98568 8.59813 2.07817 8.44444 2.20373 8.32178M5.06118 11.2962L2.20373 8.32178M2.20373 8.32178L2.2212 8.33967L2.20372 8.32179L2.20373 8.32178ZM2.09259 11.3816L2.79018 9.03399C2.79018 9.03399 2.79018 9.03399 2.79019 9.03399C2.79609 9.01431 2.80684 8.9966 2.82133 8.98254L2.8214 8.98248L8.58577 3.34792L10.204 5.00494L4.4435 10.6355L4.44341 10.6356C4.43034 10.6485 4.41453 10.658 4.39729 10.6635L2.09259 11.3816ZM2.09259 11.3816L4.39721 10.6635L2.09259 11.3816ZM12.0978 3.08198L10.8428 4.36652L9.22466 2.70894L10.4799 1.42355L10.4799 1.42353C10.4907 1.41247 10.5035 1.40373 10.5175 1.39778C10.5315 1.39183 10.5465 1.38878 10.5616 1.38878C10.5767 1.38878 10.5917 1.39183 10.6057 1.39778C10.6197 1.40373 10.6325 1.41247 10.6432 1.42353L10.6433 1.42355L12.0978 2.91302L12.0979 2.91304C12.1086 2.92407 12.1172 2.9372 12.1231 2.9517C12.129 2.9662 12.132 2.98177 12.132 2.9975C12.132 3.01323 12.129 3.0288 12.1231 3.0433C12.1172 3.0578 12.1086 3.07093 12.0979 3.08196L12.0978 3.08198Z" fill="#2F2F2F" stroke="#202020" stroke-width="0.05"/>
</svg>
