<svg width="21" height="14" viewBox="0 0 21 14" fill="none" xmlns="http://www.w3.org/2000/svg">
<path d="M0 10.3158C0 9.5019 0.587626 8.8421 1.3125 8.8421H1.96875C2.69362 8.8421 3.28125 9.5019 3.28125 10.3158V12.5263C3.28125 13.3402 2.69362 14 1.96875 14H1.3125C0.587626 14 0 13.3402 0 12.5263V10.3158Z" fill="#F5F5F5"/>
<path d="M5.90625 7.36842C5.90625 6.55453 6.49388 5.89474 7.21875 5.89474H7.875C8.59987 5.89474 9.1875 6.55453 9.1875 7.36842V12.5263C9.1875 13.3402 8.59987 14 7.875 14H7.21875C6.49388 14 5.90625 13.3402 5.90625 12.5263V7.36842Z" fill="#F5F5F5"/>
<path d="M11.8125 4.42105C11.8125 3.60716 12.4001 2.94737 13.125 2.94737H13.7812C14.5061 2.94737 15.0938 3.60716 15.0938 4.42105V12.5263C15.0938 13.3402 14.5061 14 13.7812 14H13.125C12.4001 14 11.8125 13.3402 11.8125 12.5263V4.42105Z" fill="#F5F5F5"/>
<path d="M17.7188 1.47368C17.7188 0.659791 18.3064 0 19.0312 0H19.6875C20.4124 0 21 0.659791 21 1.47368V12.5263C21 13.3402 20.4124 14 19.6875 14H19.0312C18.3064 14 17.7188 13.3402 17.7188 12.5263V1.47368Z" fill="#F5F5F5"/>
</svg>
