<svg width="16" height="16" viewBox="0 0 16 16" fill="none" xmlns="http://www.w3.org/2000/svg">
<path d="M11.4407 14.5C11.2614 14.4992 11.0862 14.4448 10.9359 14.3435L8.0058 12.4237H7.9942L5.273 14.2111C5.09721 14.3262 4.89232 14.3842 4.68457 14.3777C4.47681 14.3713 4.27563 14.3007 4.10677 14.175C3.93341 14.0428 3.80212 13.8599 3.72974 13.6497C3.65737 13.4395 3.64723 13.2117 3.70062 12.9955L4.48391 9.79983C4.48637 9.79147 4.48659 9.78257 4.48454 9.77409C4.4825 9.76561 4.47827 9.75786 4.4723 9.75169L1.84974 7.48887C1.70029 7.35934 1.59167 7.18635 1.5379 6.9922C1.48412 6.79804 1.48765 6.59164 1.54802 6.39958C1.60612 6.21 1.71809 6.04305 1.86925 5.92062C2.02042 5.79819 2.20373 5.726 2.39514 5.71351L5.8184 5.48483C5.82345 5.48419 5.82826 5.48219 5.83233 5.47902C5.83641 5.47585 5.8396 5.47163 5.84161 5.46677L7.11808 2.1267C7.18698 1.94216 7.30808 1.78355 7.46548 1.6717C7.62287 1.55985 7.80921 1.5 8 1.5C8.19079 1.5 8.37713 1.55985 8.53452 1.6717C8.69192 1.78355 8.81302 1.94216 8.88192 2.1267L10.1584 5.46677C10.1604 5.47163 10.1636 5.47585 10.1677 5.47902C10.1717 5.48219 10.1765 5.48419 10.1816 5.48483L13.6049 5.71351C13.7963 5.726 13.9796 5.79819 14.1307 5.92062C14.2819 6.04305 14.3939 6.21 14.452 6.39958C14.5124 6.59164 14.5159 6.79804 14.4621 6.9922C14.4083 7.18635 14.2997 7.35934 14.1503 7.48887L11.5277 9.75169C11.5217 9.75786 11.5175 9.76561 11.5155 9.77409C11.5134 9.78257 11.5136 9.79147 11.5161 9.79983L12.3574 13.2482C12.4073 13.4433 12.3992 13.6495 12.3339 13.8396C12.2687 14.0298 12.1494 14.195 11.9919 14.3134C11.8306 14.4322 11.6384 14.4972 11.4407 14.5ZM8 11.4608C8.17872 11.4595 8.35399 11.5118 8.50479 11.6113L11.4291 13.5311H11.4407C11.4481 13.5271 11.4542 13.5208 11.4581 13.513C11.4639 13.507 11.4639 13.501 11.4581 13.4769L10.6168 10.0285C10.5711 9.84468 10.5763 9.65122 10.6317 9.47029C10.6871 9.28936 10.7905 9.12826 10.9301 9.00544L13.5584 6.74262C13.5642 6.7366 13.5759 6.72456 13.5642 6.69447C13.5526 6.66438 13.5526 6.6704 13.5468 6.6704L10.1178 6.44171C9.93832 6.42829 9.7662 6.36236 9.6214 6.25158C9.47659 6.1408 9.36504 5.9897 9.29968 5.81582L8.01741 2.48177C8.0116 2.46372 8.0058 2.46372 8 2.46372C7.9942 2.46372 7.9884 2.46372 7.98259 2.48177L6.70032 5.82184C6.63496 5.99572 6.52341 6.14682 6.3786 6.2576C6.2338 6.36838 6.06168 6.4343 5.88222 6.44773L2.45316 6.67642C2.44736 6.67642 2.44155 6.67642 2.43575 6.70049C2.42995 6.72456 2.43575 6.74262 2.44155 6.74863L5.06992 9.01146C5.20948 9.13428 5.31288 9.29537 5.36829 9.47631C5.4237 9.65724 5.42888 9.8507 5.38324 10.0345L4.59995 13.2362C4.59294 13.2647 4.59416 13.2947 4.60344 13.3225C4.61272 13.3504 4.62966 13.3747 4.65217 13.3927C4.66835 13.4088 4.68961 13.4182 4.712 13.4193C4.7344 13.4204 4.75643 13.4131 4.77401 13.3987L7.49521 11.6113C7.64601 11.5118 7.82128 11.4595 8 11.4608Z" fill="#202020"/>
</svg>
