<svg width="21" height="14" viewBox="0 0 21 14" fill="none" xmlns="http://www.w3.org/2000/svg">
<path d="M13.8409 10.8502L10.5 14L7.1591 10.8502C8.01411 10.044 9.1953 9.54545 10.5 9.54545C11.8047 9.54545 12.9859 10.044 13.8409 10.8502Z" fill="#F5F5F5"/>
<path d="M5.72726 9.50021C6.9487 8.34862 8.6361 7.63636 10.5 7.63636C12.3639 7.63636 14.0513 8.34862 15.2727 9.50021L17.659 7.25037C15.8269 5.52297 13.2958 4.45455 10.5 4.45455C7.70424 4.45455 5.17313 5.52297 3.34095 7.25037L5.72726 9.50021Z" fill="#F5F5F5"/>
<path d="M19.0908 5.90046L21 4.10047C18.3128 1.56698 14.6005 0 10.5 0C6.39946 0 2.68717 1.56698 0 4.10048L1.90917 5.90046C4.10779 3.82758 7.14512 2.54545 10.5 2.54545C13.8549 2.54545 16.8922 3.82758 19.0908 5.90046Z" fill="#F5F5F5"/>
</svg>
